<svg xmlns="http://www.w3.org/2000/svg" viewBox="0 0 483 483" version="1.1"><path d="M 202.500 114.483 C 177 116.557, 170.727 117.463, 149.871 122.089 C 145.126 123.141, 137.701 124.659, 133.371 125.462 C 123.748 127.246, 113.174 130.135, 106.500 132.803 C 102.758 134.299, 101.567 135.267, 101.768 136.651 C 102.126 139.121, 105.561 152.490, 108.539 163 C 109.864 167.675, 111.473 173.750, 112.115 176.500 C 112.757 179.250, 113.893 182.210, 114.641 183.079 C 115.388 183.947, 116.008 185.747, 116.018 187.079 C 116.028 188.410, 117.638 193.325, 119.595 198 C 121.552 202.675, 123.811 208.300, 124.614 210.500 C 127.883 219.454, 149.656 263.064, 156.425 274.213 C 161.921 283.267, 178.201 307.039, 183.893 314.321 C 186.427 317.564, 190.530 322.807, 193.010 325.973 C 201.152 336.366, 209.226 345.266, 225.580 361.875 L 241.703 378.250 255.347 365.003 C 262.851 357.717, 272.230 347.873, 276.189 343.128 C 280.148 338.383, 283.869 334.050, 284.459 333.500 C 285.049 332.950, 287.099 330.476, 289.015 328.003 C 290.932 325.530, 293.051 322.830, 293.726 322.003 C 299.953 314.364, 318.601 288.299, 323.500 280.385 C 332.855 265.273, 354.496 222.421, 360.561 207 C 366.476 191.957, 369.086 184.802, 370.228 180.500 C 370.811 178.300, 372.835 171.550, 374.725 165.500 C 376.615 159.450, 378.762 151.575, 379.496 148 C 380.230 144.425, 381.289 140.031, 381.850 138.236 L 382.868 134.972 379.184 133.428 C 377.158 132.579, 372.155 130.986, 368.067 129.888 C 363.979 128.790, 360.249 127.654, 359.777 127.362 C 359.306 127.071, 354.550 126.024, 349.210 125.036 C 343.869 124.048, 331.400 121.641, 321.500 119.689 C 307.358 116.899, 297.392 115.690, 275 114.044 C 241.504 111.582, 237.909 111.604, 202.500 114.483 M 248.500 153.831 C 244.650 155.922, 237.675 159.682, 233 162.187 C 228.325 164.691, 221.350 168.447, 217.500 170.532 C 213.650 172.618, 209.150 174.999, 207.500 175.823 C 205.850 176.648, 200.675 179.612, 196 182.411 L 187.500 187.500 192.058 187.797 C 196.258 188.071, 202.164 186.194, 207 183.050 C 211.297 180.256, 254.945 157, 255.892 157 C 256.501 157, 257 156.587, 257 156.083 C 257 155.578, 259.025 154.392, 261.500 153.447 C 263.975 152.502, 266 151.339, 266 150.864 C 266 150.389, 263.637 150.006, 260.750 150.014 C 256.581 150.025, 254.059 150.811, 248.500 153.831 M 274.585 156.020 C 268.581 159.310, 263.480 161.813, 263.249 161.582 C 263.018 161.351, 263.767 160.660, 264.914 160.046 C 266.975 158.943, 267.762 155.589, 266.188 154.616 C 265.741 154.340, 263.010 155.466, 260.119 157.117 L 254.862 160.119 255.181 163.205 L 255.500 166.290 243 173.223 C 236.125 177.037, 227.350 181.809, 223.500 183.828 L 216.500 187.500 222.377 187.804 L 228.253 188.107 239.377 182.005 C 245.494 178.649, 251.175 175.470, 252 174.939 C 252.825 174.409, 255.300 173.069, 257.500 171.962 C 259.700 170.855, 262.843 169.173, 264.485 168.225 C 275.574 161.816, 291.956 153, 292.775 153 C 293.314 153, 294.315 152.325, 295 151.500 L 296.245 150 290.872 150.019 L 285.500 150.038 274.585 156.020 M 302 151.549 C 300.625 152.300, 296.931 154.025, 293.791 155.383 C 290.650 156.741, 286.576 159.348, 284.737 161.176 C 282.898 163.004, 280.075 165.175, 278.464 166 C 276.852 166.825, 271.476 170.070, 266.517 173.210 C 261.558 176.351, 254.463 180.759, 250.750 183.005 C 247.037 185.251, 244 187.294, 244 187.545 C 244 187.795, 246.395 188, 249.322 188 L 254.644 188 266.072 181.028 C 278.212 173.621, 284.578 170, 285.460 170 C 285.757 170, 286 173.375, 286 177.500 C 286 181.625, 286.298 185, 286.662 185 C 287.026 185, 289.276 183.856, 291.662 182.458 L 296 179.916 296 171.646 L 296 163.376 299.250 160.941 C 301.038 159.602, 303.400 158.027, 304.500 157.442 C 309.184 154.950, 316 150.779, 316 150.405 C 316 149.374, 304.219 150.337, 302 151.549 M 310.250 157.153 L 305 160.193 305 192.572 L 305 224.950 307.651 223.943 C 309.109 223.388, 311.584 222.177, 313.151 221.252 L 316 219.569 316 186.784 C 316 168.753, 315.887 154.025, 315.750 154.056 C 315.613 154.087, 313.137 155.481, 310.250 157.153 M 279 191.117 C 274.875 193.366, 267.788 197.133, 263.250 199.488 L 255 203.770 255 197.835 L 255 191.900 249.250 192.200 L 243.500 192.500 243.215 201.559 L 242.930 210.618 237.465 213.298 L 232 215.978 232 219.489 C 232 221.420, 232.240 223, 232.533 223 C 232.827 223, 235.302 221.867, 238.033 220.483 L 243 217.966 243 235.924 C 243 246.686, 243.396 254.127, 243.989 254.493 C 244.533 254.830, 247.121 254.037, 249.739 252.731 L 254.500 250.358 254.812 230.429 L 255.125 210.500 259.312 208.447 C 261.616 207.318, 268.900 203.310, 275.500 199.541 C 282.100 195.772, 289.159 191.862, 291.186 190.851 C 296.751 188.079, 296.785 186.998, 291.309 187.014 C 287.587 187.025, 284.804 187.953, 279 191.117 M 187.667 192.667 C 187.300 193.033, 187 217.333, 187 246.667 L 187 300 192.500 300 L 198 300 198 246 L 198 192 193.167 192 C 190.508 192, 188.033 192.300, 187.667 192.667 M 217 237.755 L 217 283.609 209.500 287.467 L 202 291.325 202 294.163 C 202 297.714, 202.669 297.701, 210 294 C 213.269 292.350, 216.181 291, 216.471 291 C 216.762 291, 217 293.025, 217 295.500 L 217 300 223 300 L 229 300 229 291.449 L 229 282.898 232.468 281.449 C 234.375 280.652, 236.175 280, 236.468 280 C 236.761 280, 237 282.036, 237 284.525 L 237 289.050 234.500 290 C 232.480 290.768, 232 291.633, 232 294.510 L 232 298.070 233.934 297.035 C 236.623 295.596, 237 295.715, 237 298 L 237 300 242.500 300 L 248 300 248.012 294.750 L 248.024 289.500 254.227 286 C 264.240 280.350, 276.834 273.521, 286.691 268.396 C 291.746 265.768, 295.657 263.254, 295.382 262.809 C 295.107 262.364, 293.101 262, 290.924 262 C 286.775 262, 271.446 269.076, 258.714 276.869 C 255.233 279, 251.398 281.056, 250.192 281.439 L 248 282.135 248 277.710 L 248 273.285 255.750 268.755 C 260.012 266.263, 265.075 263.386, 267 262.362 L 270.500 260.500 265.324 260.200 C 261.029 259.952, 258.947 260.505, 253.099 263.450 C 248.125 265.955, 244.718 267, 241.525 267 L 237 267 237 269.418 C 237 271.086, 235.954 272.483, 233.632 273.918 C 231.780 275.063, 229.984 276, 229.643 276 C 229.301 276, 228.905 257.212, 228.761 234.250 L 228.500 192.500 222.750 192.200 L 217 191.900 217 237.755 M 290.500 194.430 L 286.500 196.849 286 217.175 L 285.500 237.500 280.250 240.313 L 275 243.127 275 229.563 C 275 221.326, 274.613 216, 274.015 216 C 273.473 216, 270.786 217.381, 268.043 219.069 L 263.056 222.137 262.778 235.819 L 262.500 249.500 249.504 256 L 236.508 262.500 241.625 262.798 C 245.908 263.047, 248.063 262.450, 254.861 259.128 C 259.327 256.945, 263.237 255.574, 263.549 256.080 C 263.862 256.586, 266.566 257, 269.559 257 L 275 257 275 253.199 L 275 249.399 279.527 247.199 C 282.016 245.990, 284.491 245, 285.027 245 C 285.562 245, 286 247.925, 286 251.500 L 286 258 291 258 L 296 258 296.026 248.250 L 296.052 238.500 309.026 232.114 C 316.162 228.601, 322 225.339, 322 224.864 C 322 224.389, 319.965 224, 317.478 224 C 314.204 224, 310.786 225.091, 305.096 227.952 C 300.773 230.125, 296.958 231.625, 296.618 231.285 C 296.278 230.945, 296 221.967, 296 211.333 C 296 200.700, 295.663 192.002, 295.250 192.005 C 294.837 192.008, 292.700 193.099, 290.500 194.430 M 316.500 231.297 L 312.500 233.560 312.222 247.280 L 311.944 261 317.472 261 L 323 261 323 245 C 323 232.858, 322.699 229.004, 321.750 229.016 C 321.063 229.025, 318.700 230.052, 316.500 231.297" stroke="none" fill="#fefe01" fill-rule="evenodd"/><path d="M 212.550 20.017 C 186.888 21.407, 167.586 24.311, 135 31.683 C 115.439 36.109, 95.040 42.277, 86.657 46.300 C 81.507 48.772, 75.734 50.848, 72 51.570 C 70.075 51.942, 66.450 53.279, 63.945 54.541 C 61.439 55.804, 57.722 57.149, 55.684 57.532 C 53.646 57.914, 51.710 58.660, 51.382 59.190 C 51.055 59.720, 45.322 62.805, 38.643 66.046 C 31.965 69.286, 22.730 74.048, 18.123 76.628 L 9.747 81.319 10.475 102.770 C 10.875 114.568, 11.607 125.630, 12.101 127.354 C 12.596 129.077, 13 132.405, 13 134.750 C 13 137.095, 13.722 143.623, 14.605 149.257 C 15.487 154.890, 16.586 162.425, 17.046 166 C 18.027 173.624, 19.532 180.811, 22.176 190.500 C 23.227 194.350, 25.395 202.450, 26.994 208.500 C 28.592 214.550, 30.779 221.750, 31.853 224.500 C 32.926 227.250, 36.168 236.250, 39.056 244.500 C 41.944 252.750, 45.113 261.075, 46.097 263 C 47.081 264.925, 49.443 270.100, 51.346 274.500 C 61.778 298.614, 89.161 344.166, 103.646 361.500 C 105.484 363.700, 109.354 368.683, 112.244 372.572 C 115.135 376.462, 121.550 384.102, 126.500 389.550 C 141.350 405.894, 173.788 438, 175.450 438 C 176.302 438, 177 438.450, 177 439 C 177 439.550, 177.427 440, 177.950 440 C 179.690 440, 188.061 446.163, 189.683 448.640 C 191.167 450.903, 200.817 458, 202.412 458 C 202.800 458, 204.778 459.271, 206.809 460.824 C 217.411 468.934, 222.352 472.309, 231.088 477.406 C 236.361 480.483, 241.361 483, 242.198 483 C 243.036 483, 245.246 481.980, 247.110 480.732 C 248.975 479.485, 253.650 476.545, 257.500 474.198 C 261.350 471.851, 267.650 467.675, 271.500 464.918 C 275.350 462.160, 279.512 459.487, 280.750 458.977 C 281.988 458.467, 283 457.623, 283 457.102 C 283 456.581, 284.509 455.657, 286.353 455.049 C 288.197 454.440, 290.751 452.830, 292.027 451.471 C 293.304 450.112, 294.905 449, 295.586 449 C 296.266 449, 299.324 446.638, 302.382 443.750 C 305.440 440.863, 309.867 436.731, 312.221 434.568 C 325.369 422.488, 333.491 414.553, 341.916 405.557 C 347.096 400.026, 354.897 391.693, 359.251 387.039 C 363.606 382.386, 369.867 374.961, 373.166 370.539 C 376.465 366.118, 380.365 360.972, 381.832 359.104 C 387.174 352.305, 396.043 339.281, 401.653 330 C 404.811 324.775, 408.382 319.150, 409.588 317.500 C 412.860 313.027, 429.019 281.209, 435.255 266.962 C 438.255 260.108, 442.613 249.100, 444.940 242.500 C 447.266 235.900, 450.105 228.062, 451.249 225.083 C 452.394 222.104, 453.659 218.054, 454.062 216.083 C 454.465 214.112, 455.726 209.125, 456.864 205 C 458.001 200.875, 459.604 194.800, 460.425 191.500 C 461.246 188.200, 462.825 181.900, 463.934 177.500 C 467.902 161.761, 468.904 157.412, 470.006 151.139 C 471.479 142.758, 472.918 116.381, 472.964 96.926 L 473 81.351 463.750 76.269 C 458.663 73.474, 449.745 68.727, 443.933 65.722 C 438.121 62.716, 431.493 59.074, 429.203 57.628 C 426.913 56.183, 424.616 55, 424.099 55 C 423.582 55, 419.410 53.416, 414.829 51.481 C 410.248 49.545, 402.104 46.847, 396.730 45.486 C 391.357 44.124, 385.282 42.297, 383.230 41.425 C 367.671 34.812, 313.164 23.472, 285.500 21.091 C 267.858 19.573, 230.819 19.028, 212.550 20.017 M 222 20.603 C 196.860 21.768, 165.122 25.689, 154.500 28.941 C 152.850 29.447, 149.475 30.149, 147 30.501 C 136.955 31.932, 105.116 40.150, 102.500 41.987 C 101.950 42.374, 99.362 43.268, 96.750 43.975 L 92 45.260 92.001 59.380 C 92.003 71.761, 93.934 89.268, 95.469 90.802 C 95.750 91.083, 97.672 90.564, 99.740 89.648 C 101.808 88.732, 106.650 87.153, 110.500 86.140 C 141.849 77.886, 157.453 74.326, 166 73.478 C 169.575 73.123, 180.375 71.705, 190 70.326 L 207.500 67.819 242 67.854 L 276.500 67.890 290.500 69.963 C 298.200 71.104, 309 72.497, 314.500 73.058 C 320 73.620, 327.200 74.793, 330.500 75.665 C 333.800 76.537, 340.550 78.108, 345.500 79.157 C 361.138 82.468, 362.994 82.920, 369.317 84.946 C 383.849 89.603, 388.435 91, 389.194 91 C 389.637 91, 390.008 88.412, 390.017 85.250 C 390.027 82.088, 390.447 75.450, 390.951 70.500 C 391.455 65.550, 391.999 57.981, 392.161 53.681 L 392.455 45.862 380.978 41.998 C 366.950 37.276, 357.724 34.784, 344 32.009 C 338.225 30.841, 330.575 29.266, 327 28.509 C 311.975 25.329, 296.692 23.012, 284.500 22.064 C 269.879 20.927, 233.403 20.075, 222 20.603 M 48.500 63 C 48.160 63.550, 47.245 64, 46.467 64 C 44.454 64, 21.581 75.479, 13.127 80.733 L 10.753 82.208 11.403 100.354 C 11.760 110.334, 12.310 120.654, 12.625 123.286 L 13.197 128.071 16.349 125.992 C 18.082 124.848, 27.001 120.122, 36.170 115.491 C 45.338 110.859, 53.055 106.716, 53.318 106.285 C 54.056 105.075, 50.685 62, 49.852 62 C 49.448 62, 48.840 62.450, 48.500 63 M 433 67.677 C 433 70.744, 432.292 80.706, 431.426 89.816 L 429.851 106.379 432.176 108.169 C 433.454 109.153, 435.864 110.420, 437.531 110.985 C 439.198 111.549, 447.245 115.399, 455.413 119.540 C 463.581 123.681, 470.471 126.863, 470.723 126.610 C 470.975 126.358, 471.421 116.307, 471.714 104.274 L 472.246 82.396 461.373 76.300 C 449.560 69.676, 442.587 66.098, 436.750 63.665 L 433 62.102 433 67.677 M 202.500 114.483 C 177 116.557, 170.727 117.463, 149.871 122.089 C 145.126 123.141, 137.701 124.659, 133.371 125.462 C 123.748 127.246, 113.174 130.135, 106.500 132.803 C 102.758 134.299, 101.567 135.267, 101.768 136.651 C 102.126 139.121, 105.561 152.490, 108.539 163 C 109.864 167.675, 111.473 173.750, 112.115 176.500 C 112.757 179.250, 113.893 182.210, 114.641 183.079 C 115.388 183.947, 116.008 185.747, 116.018 187.079 C 116.028 188.410, 117.638 193.325, 119.595 198 C 121.552 202.675, 123.811 208.300, 124.614 210.500 C 127.883 219.454, 149.656 263.064, 156.425 274.213 C 161.921 283.267, 178.201 307.039, 183.893 314.321 C 186.427 317.564, 190.530 322.807, 193.010 325.973 C 201.152 336.366, 209.226 345.266, 225.580 361.875 L 241.703 378.250 255.347 365.003 C 262.851 357.717, 272.230 347.873, 276.189 343.128 C 280.148 338.383, 283.869 334.050, 284.459 333.500 C 285.049 332.950, 287.099 330.476, 289.015 328.003 C 290.932 325.530, 293.051 322.830, 293.726 322.003 C 299.953 314.364, 318.601 288.299, 323.500 280.385 C 332.855 265.273, 354.496 222.421, 360.561 207 C 366.476 191.957, 369.086 184.802, 370.228 180.500 C 370.811 178.300, 372.835 171.550, 374.725 165.500 C 376.615 159.450, 378.762 151.575, 379.496 148 C 380.230 144.425, 381.289 140.031, 381.850 138.236 L 382.868 134.972 379.184 133.428 C 377.158 132.579, 372.155 130.986, 368.067 129.888 C 363.979 128.790, 360.249 127.654, 359.777 127.362 C 359.306 127.071, 354.550 126.024, 349.210 125.036 C 343.869 124.048, 331.400 121.641, 321.500 119.689 C 307.358 116.899, 297.392 115.690, 275 114.044 C 241.504 111.582, 237.909 111.604, 202.500 114.483 M 57.500 152 C 57.160 152.550, 56.177 153, 55.316 153 C 53.274 153, 21.570 168.608, 20.160 170.307 C 19.377 171.251, 19.481 172.949, 20.539 176.464 C 21.343 179.134, 22 182.569, 22 184.097 C 22 185.626, 23.082 190.392, 24.404 194.688 C 25.726 198.985, 27.827 206.325, 29.073 211 C 33.542 227.770, 50.971 273.377, 56.587 283 C 57.389 284.375, 60.225 289.775, 62.889 295 C 65.552 300.225, 70.267 308.649, 73.366 313.720 C 76.465 318.791, 79 323.163, 79 323.435 C 79 323.977, 86.960 336.187, 95.013 348 C 97.825 352.125, 101.426 356.850, 103.015 358.500 C 104.603 360.150, 107.931 364.425, 110.410 368 C 112.889 371.575, 119.323 379.435, 124.709 385.466 C 136.352 398.506, 163.426 426.325, 167.079 429.002 L 169.658 430.892 174.579 427.355 C 177.285 425.410, 180.400 423.448, 181.500 422.995 C 184.134 421.909, 199.809 411.253, 203.927 407.747 L 207.162 404.993 196.331 394.779 C 183.065 382.268, 178.182 377.252, 171.721 369.500 C 168.971 366.200, 163.747 360.319, 160.111 356.430 C 156.475 352.542, 151.508 346.692, 149.074 343.430 C 146.639 340.169, 143.466 335.925, 142.022 334 C 140.578 332.075, 138.319 328.700, 137.002 326.500 C 135.685 324.300, 132.783 320.170, 130.554 317.322 C 128.324 314.474, 124.250 308.421, 121.500 303.872 C 118.750 299.322, 115.551 294.188, 114.391 292.463 C 110.126 286.120, 87.979 241.312, 86.483 236 C 86.096 234.625, 84.322 230.125, 82.542 226 C 77.536 214.401, 69.592 189.397, 65.543 172.500 C 60.613 151.924, 59.422 148.890, 57.500 152 M 423.469 153.803 C 423.171 155.287, 421.848 160.775, 420.528 166 C 419.209 171.225, 417.684 177.525, 417.139 180 C 416.594 182.475, 415.472 186.525, 414.646 189 C 413.821 191.475, 411.972 197.325, 410.537 202 C 409.103 206.675, 406.978 212.975, 405.816 216 C 400.449 229.961, 397.510 237.001, 394.469 243.175 C 392.661 246.847, 390.856 250.880, 390.457 252.137 C 389.509 255.123, 380.422 273.581, 375.509 282.500 C 373.388 286.350, 371.160 290.400, 370.559 291.500 C 369.958 292.600, 368.739 294.625, 367.852 296 C 355.595 314.989, 350.468 322.655, 348.893 324.345 C 347.852 325.463, 347 326.885, 347 327.506 C 347 328.127, 343.962 332.436, 340.250 337.081 C 336.538 341.727, 331.152 348.530, 328.283 352.200 C 319.957 362.849, 307.022 376.444, 286.250 396.376 C 281.163 401.258, 277 405.403, 277 405.587 C 277 406.720, 295.497 419.474, 307.500 426.617 L 314.500 430.782 319.495 426.141 C 324.814 421.199, 346.341 399.120, 357.170 387.500 C 369.363 374.416, 392.580 343.607, 400.500 330 C 402.150 327.165, 405.258 322.068, 407.407 318.673 C 409.556 315.278, 413.995 307.325, 417.271 301 C 420.548 294.675, 424.510 287.025, 426.077 284 C 427.644 280.975, 429.793 276.475, 430.852 274 C 431.912 271.525, 433.997 266.800, 435.487 263.500 C 438.645 256.501, 439.693 253.787, 445.715 237 C 448.182 230.125, 451.218 220.900, 452.463 216.500 C 453.708 212.100, 455.698 205.125, 456.886 201 C 458.074 196.875, 459.532 191.025, 460.124 188 C 460.717 184.975, 461.872 179.852, 462.691 176.614 C 463.930 171.717, 463.955 170.579, 462.840 169.838 C 460.942 168.575, 432.260 154.534, 427.756 152.662 L 424.011 151.107 423.469 153.803 M 238.964 434.386 C 237.200 436.055, 217.208 449.298, 210.107 453.500 C 207.319 455.150, 205.029 456.806, 205.019 457.180 C 204.983 458.458, 223.485 471.652, 232.739 476.948 L 241.977 482.236 251.739 476.391 C 257.107 473.177, 264.270 468.511, 267.655 466.023 C 271.040 463.536, 275.288 460.685, 277.094 459.688 L 280.377 457.877 274.279 454.021 C 270.926 451.901, 266.003 448.962, 263.341 447.490 C 260.678 446.019, 257.375 443.811, 256 442.583 C 251.859 438.886, 243.082 433, 241.712 433 C 241.006 433, 239.770 433.624, 238.964 434.386" stroke="none" fill="#fbf9f9" fill-rule="evenodd"/><path d="M 222 20.603 C 196.860 21.768, 165.122 25.689, 154.500 28.941 C 152.850 29.447, 149.475 30.149, 147 30.501 C 136.955 31.932, 105.116 40.150, 102.500 41.987 C 101.950 42.374, 99.362 43.268, 96.750 43.975 L 92 45.260 92.001 59.380 C 92.003 71.761, 93.934 89.268, 95.469 90.802 C 95.750 91.083, 97.672 90.564, 99.740 89.648 C 101.808 88.732, 106.650 87.153, 110.500 86.140 C 141.849 77.886, 157.453 74.326, 166 73.478 C 169.575 73.123, 180.375 71.705, 190 70.326 L 207.500 67.819 242 67.854 L 276.500 67.890 290.500 69.963 C 298.200 71.104, 309 72.497, 314.500 73.058 C 320 73.620, 327.200 74.793, 330.500 75.665 C 333.800 76.537, 340.550 78.108, 345.500 79.157 C 361.138 82.468, 362.994 82.920, 369.317 84.946 C 383.849 89.603, 388.435 91, 389.194 91 C 389.637 91, 390.008 88.412, 390.017 85.250 C 390.027 82.088, 390.447 75.450, 390.951 70.500 C 391.455 65.550, 391.999 57.981, 392.161 53.681 L 392.455 45.862 380.978 41.998 C 366.950 37.276, 357.724 34.784, 344 32.009 C 338.225 30.841, 330.575 29.266, 327 28.509 C 311.975 25.329, 296.692 23.012, 284.500 22.064 C 269.879 20.927, 233.403 20.075, 222 20.603 M 48.500 63 C 48.160 63.550, 47.245 64, 46.467 64 C 44.454 64, 21.581 75.479, 13.127 80.733 L 10.753 82.208 11.403 100.354 C 11.760 110.334, 12.310 120.654, 12.625 123.286 L 13.197 128.071 16.349 125.992 C 18.082 124.848, 27.001 120.122, 36.170 115.491 C 45.338 110.859, 53.055 106.716, 53.318 106.285 C 54.056 105.075, 50.685 62, 49.852 62 C 49.448 62, 48.840 62.450, 48.500 63 M 433 67.677 C 433 70.744, 432.292 80.706, 431.426 89.816 L 429.851 106.379 432.176 108.169 C 433.454 109.153, 435.864 110.420, 437.531 110.985 C 439.198 111.549, 447.245 115.399, 455.413 119.540 C 463.581 123.681, 470.471 126.863, 470.723 126.610 C 470.975 126.358, 471.421 116.307, 471.714 104.274 L 472.246 82.396 461.373 76.300 C 449.560 69.676, 442.587 66.098, 436.750 63.665 L 433 62.102 433 67.677 M 248.500 153.831 C 244.650 155.922, 237.675 159.682, 233 162.187 C 228.325 164.691, 221.350 168.447, 217.500 170.532 C 213.650 172.618, 209.150 174.999, 207.500 175.823 C 205.850 176.648, 200.675 179.612, 196 182.411 L 187.500 187.500 192.058 187.797 C 196.258 188.071, 202.164 186.194, 207 183.050 C 211.297 180.256, 254.945 157, 255.892 157 C 256.501 157, 257 156.587, 257 156.083 C 257 155.578, 259.025 154.392, 261.500 153.447 C 263.975 152.502, 266 151.339, 266 150.864 C 266 150.389, 263.637 150.006, 260.750 150.014 C 256.581 150.025, 254.059 150.811, 248.500 153.831 M 274.585 156.020 C 268.581 159.310, 263.480 161.813, 263.249 161.582 C 263.018 161.351, 263.767 160.660, 264.914 160.046 C 266.975 158.943, 267.762 155.589, 266.188 154.616 C 265.741 154.340, 263.010 155.466, 260.119 157.117 L 254.862 160.119 255.181 163.205 L 255.500 166.290 243 173.223 C 236.125 177.037, 227.350 181.809, 223.500 183.828 L 216.500 187.500 222.377 187.804 L 228.253 188.107 239.377 182.005 C 245.494 178.649, 251.175 175.470, 252 174.939 C 252.825 174.409, 255.300 173.069, 257.500 171.962 C 259.700 170.855, 262.843 169.173, 264.485 168.225 C 275.574 161.816, 291.956 153, 292.775 153 C 293.314 153, 294.315 152.325, 295 151.500 L 296.245 150 290.872 150.019 L 285.500 150.038 274.585 156.020 M 302 151.549 C 300.625 152.300, 296.931 154.025, 293.791 155.383 C 290.650 156.741, 286.576 159.348, 284.737 161.176 C 282.898 163.004, 280.075 165.175, 278.464 166 C 276.852 166.825, 271.476 170.070, 266.517 173.210 C 261.558 176.351, 254.463 180.759, 250.750 183.005 C 247.037 185.251, 244 187.294, 244 187.545 C 244 187.795, 246.395 188, 249.322 188 L 254.644 188 266.072 181.028 C 278.212 173.621, 284.578 170, 285.460 170 C 285.757 170, 286 173.375, 286 177.500 C 286 181.625, 286.298 185, 286.662 185 C 287.026 185, 289.276 183.856, 291.662 182.458 L 296 179.916 296 171.646 L 296 163.376 299.250 160.941 C 301.038 159.602, 303.400 158.027, 304.500 157.442 C 309.184 154.950, 316 150.779, 316 150.405 C 316 149.374, 304.219 150.337, 302 151.549 M 57.500 152 C 57.160 152.550, 56.177 153, 55.316 153 C 53.274 153, 21.570 168.608, 20.160 170.307 C 19.377 171.251, 19.481 172.949, 20.539 176.464 C 21.343 179.134, 22 182.569, 22 184.097 C 22 185.626, 23.082 190.392, 24.404 194.688 C 25.726 198.985, 27.827 206.325, 29.073 211 C 33.542 227.770, 50.971 273.377, 56.587 283 C 57.389 284.375, 60.225 289.775, 62.889 295 C 65.552 300.225, 70.267 308.649, 73.366 313.720 C 76.465 318.791, 79 323.163, 79 323.435 C 79 323.977, 86.960 336.187, 95.013 348 C 97.825 352.125, 101.426 356.850, 103.015 358.500 C 104.603 360.150, 107.931 364.425, 110.410 368 C 112.889 371.575, 119.323 379.435, 124.709 385.466 C 136.352 398.506, 163.426 426.325, 167.079 429.002 L 169.658 430.892 174.579 427.355 C 177.285 425.410, 180.400 423.448, 181.500 422.995 C 184.134 421.909, 199.809 411.253, 203.927 407.747 L 207.162 404.993 196.331 394.779 C 183.065 382.268, 178.182 377.252, 171.721 369.500 C 168.971 366.200, 163.747 360.319, 160.111 356.430 C 156.475 352.542, 151.508 346.692, 149.074 343.430 C 146.639 340.169, 143.466 335.925, 142.022 334 C 140.578 332.075, 138.319 328.700, 137.002 326.500 C 135.685 324.300, 132.783 320.170, 130.554 317.322 C 128.324 314.474, 124.250 308.421, 121.500 303.872 C 118.750 299.322, 115.551 294.188, 114.391 292.463 C 110.126 286.120, 87.979 241.312, 86.483 236 C 86.096 234.625, 84.322 230.125, 82.542 226 C 77.536 214.401, 69.592 189.397, 65.543 172.500 C 60.613 151.924, 59.422 148.890, 57.500 152 M 423.469 153.803 C 423.171 155.287, 421.848 160.775, 420.528 166 C 419.209 171.225, 417.684 177.525, 417.139 180 C 416.594 182.475, 415.472 186.525, 414.646 189 C 413.821 191.475, 411.972 197.325, 410.537 202 C 409.103 206.675, 406.978 212.975, 405.816 216 C 400.449 229.961, 397.510 237.001, 394.469 243.175 C 392.661 246.847, 390.856 250.880, 390.457 252.137 C 389.509 255.123, 380.422 273.581, 375.509 282.500 C 373.388 286.350, 371.160 290.400, 370.559 291.500 C 369.958 292.600, 368.739 294.625, 367.852 296 C 355.595 314.989, 350.468 322.655, 348.893 324.345 C 347.852 325.463, 347 326.885, 347 327.506 C 347 328.127, 343.962 332.436, 340.250 337.081 C 336.538 341.727, 331.152 348.530, 328.283 352.200 C 319.957 362.849, 307.022 376.444, 286.250 396.376 C 281.163 401.258, 277 405.403, 277 405.587 C 277 406.720, 295.497 419.474, 307.500 426.617 L 314.500 430.782 319.495 426.141 C 324.814 421.199, 346.341 399.120, 357.170 387.500 C 369.363 374.416, 392.580 343.607, 400.500 330 C 402.150 327.165, 405.258 322.068, 407.407 318.673 C 409.556 315.278, 413.995 307.325, 417.271 301 C 420.548 294.675, 424.510 287.025, 426.077 284 C 427.644 280.975, 429.793 276.475, 430.852 274 C 431.912 271.525, 433.997 266.800, 435.487 263.500 C 438.645 256.501, 439.693 253.787, 445.715 237 C 448.182 230.125, 451.218 220.900, 452.463 216.500 C 453.708 212.100, 455.698 205.125, 456.886 201 C 458.074 196.875, 459.532 191.025, 460.124 188 C 460.717 184.975, 461.872 179.852, 462.691 176.614 C 463.930 171.717, 463.955 170.579, 462.840 169.838 C 460.942 168.575, 432.260 154.534, 427.756 152.662 L 424.011 151.107 423.469 153.803 M 310.250 157.153 L 305 160.193 305 192.572 L 305 224.950 307.651 223.943 C 309.109 223.388, 311.584 222.177, 313.151 221.252 L 316 219.569 316 186.784 C 316 168.753, 315.887 154.025, 315.750 154.056 C 315.613 154.087, 313.137 155.481, 310.250 157.153 M 279 191.117 C 274.875 193.366, 267.788 197.133, 263.250 199.488 L 255 203.770 255 197.835 L 255 191.900 249.250 192.200 L 243.500 192.500 243.215 201.559 L 242.930 210.618 237.465 213.298 L 232 215.978 232 219.489 C 232 221.420, 232.240 223, 232.533 223 C 232.827 223, 235.302 221.867, 238.033 220.483 L 243 217.966 243 235.924 C 243 246.686, 243.396 254.127, 243.989 254.493 C 244.533 254.830, 247.121 254.037, 249.739 252.731 L 254.500 250.358 254.812 230.429 L 255.125 210.500 259.312 208.447 C 261.616 207.318, 268.900 203.310, 275.500 199.541 C 282.100 195.772, 289.159 191.862, 291.186 190.851 C 296.751 188.079, 296.785 186.998, 291.309 187.014 C 287.587 187.025, 284.804 187.953, 279 191.117 M 187.667 192.667 C 187.300 193.033, 187 217.333, 187 246.667 L 187 300 192.500 300 L 198 300 198 246 L 198 192 193.167 192 C 190.508 192, 188.033 192.300, 187.667 192.667 M 217 237.755 L 217 283.609 209.500 287.467 L 202 291.325 202 294.163 C 202 297.714, 202.669 297.701, 210 294 C 213.269 292.350, 216.181 291, 216.471 291 C 216.762 291, 217 293.025, 217 295.500 L 217 300 223 300 L 229 300 229 291.449 L 229 282.898 232.468 281.449 C 234.375 280.652, 236.175 280, 236.468 280 C 236.761 280, 237 282.036, 237 284.525 L 237 289.050 234.500 290 C 232.480 290.768, 232 291.633, 232 294.510 L 232 298.070 233.934 297.035 C 236.623 295.596, 237 295.715, 237 298 L 237 300 242.500 300 L 248 300 248.012 294.750 L 248.024 289.500 254.227 286 C 264.240 280.350, 276.834 273.521, 286.691 268.396 C 291.746 265.768, 295.657 263.254, 295.382 262.809 C 295.107 262.364, 293.101 262, 290.924 262 C 286.775 262, 271.446 269.076, 258.714 276.869 C 255.233 279, 251.398 281.056, 250.192 281.439 L 248 282.135 248 277.710 L 248 273.285 255.750 268.755 C 260.012 266.263, 265.075 263.386, 267 262.362 L 270.500 260.500 265.324 260.200 C 261.029 259.952, 258.947 260.505, 253.099 263.450 C 248.125 265.955, 244.718 267, 241.525 267 L 237 267 237 269.418 C 237 271.086, 235.954 272.483, 233.632 273.918 C 231.780 275.063, 229.984 276, 229.643 276 C 229.301 276, 228.905 257.212, 228.761 234.250 L 228.500 192.500 222.750 192.200 L 217 191.900 217 237.755 M 290.500 194.430 L 286.500 196.849 286 217.175 L 285.500 237.500 280.250 240.313 L 275 243.127 275 229.563 C 275 221.326, 274.613 216, 274.015 216 C 273.473 216, 270.786 217.381, 268.043 219.069 L 263.056 222.137 262.778 235.819 L 262.500 249.500 249.504 256 L 236.508 262.500 241.625 262.798 C 245.908 263.047, 248.063 262.450, 254.861 259.128 C 259.327 256.945, 263.237 255.574, 263.549 256.080 C 263.862 256.586, 266.566 257, 269.559 257 L 275 257 275 253.199 L 275 249.399 279.527 247.199 C 282.016 245.990, 284.491 245, 285.027 245 C 285.562 245, 286 247.925, 286 251.500 L 286 258 291 258 L 296 258 296.026 248.250 L 296.052 238.500 309.026 232.114 C 316.162 228.601, 322 225.339, 322 224.864 C 322 224.389, 319.965 224, 317.478 224 C 314.204 224, 310.786 225.091, 305.096 227.952 C 300.773 230.125, 296.958 231.625, 296.618 231.285 C 296.278 230.945, 296 221.967, 296 211.333 C 296 200.700, 295.663 192.002, 295.250 192.005 C 294.837 192.008, 292.700 193.099, 290.500 194.430 M 316.500 231.297 L 312.500 233.560 312.222 247.280 L 311.944 261 317.472 261 L 323 261 323 245 C 323 232.858, 322.699 229.004, 321.750 229.016 C 321.063 229.025, 318.700 230.052, 316.500 231.297 M 238.964 434.386 C 237.200 436.055, 217.208 449.298, 210.107 453.500 C 207.319 455.150, 205.029 456.806, 205.019 457.180 C 204.983 458.458, 223.485 471.652, 232.739 476.948 L 241.977 482.236 251.739 476.391 C 257.107 473.177, 264.270 468.511, 267.655 466.023 C 271.040 463.536, 275.288 460.685, 277.094 459.688 L 280.377 457.877 274.279 454.021 C 270.926 451.901, 266.003 448.962, 263.341 447.490 C 260.678 446.019, 257.375 443.811, 256 442.583 C 251.859 438.886, 243.082 433, 241.712 433 C 241.006 433, 239.770 433.624, 238.964 434.386" stroke="none" fill="#fc0706" fill-rule="evenodd"/></svg>